<svg width="171" height="127" viewBox="0 0 171 127" fill="none" xmlns="http://www.w3.org/2000/svg">
<path d="M25.3784 47.7487C26.5647 46.315 28.6886 46.1144 30.1226 47.3005C31.5566 48.4866 31.7578 50.6105 30.5718 52.0446C24.9808 58.804 17.4804 69.377 12.3824 79.8805C35.1863 73.8225 50.5178 101.754 30.1001 113.554C26.6661 114.603 23.3961 114.938 20.3745 114.706C26.678 117.791 33.9847 119.772 40.8374 120.11C41.0722 120.122 41.306 120.128 41.5386 120.135C38.3462 116.532 37.8904 110.901 42.7642 107.732C49.835 105.545 55.7723 111.919 55.3345 117.509C58.9478 115.579 61.4837 112.56 62.4136 108.055C62.8556 105.914 63.0829 103.913 63.1656 102.07C62.87 102.262 62.5622 102.448 62.2407 102.627C45.8091 107.081 34.6807 87.0326 48.7359 78.3532C56.234 76.1009 62.7311 79.4077 66.1509 84.4011C66.3042 84.5742 66.4424 84.7661 66.5611 84.9753L66.5357 84.9889L66.5367 84.9909C66.559 84.9786 66.563 84.9772 66.563 84.9772L66.564 84.9811C66.5651 84.983 66.5667 84.9849 66.5679 84.987C66.5704 84.9914 66.5737 84.9962 66.5767 85.0016C66.583 85.0129 66.5906 85.0271 66.5992 85.0427C66.6163 85.0739 66.6381 85.1145 66.6636 85.1628C66.7014 85.2342 66.7463 85.3251 66.8003 85.4333C67.5918 86.8086 68.1584 88.2825 68.4615 89.7858C68.6487 90.4243 68.8335 91.1216 69.0044 91.8757C69.9654 96.1147 70.5185 102.13 69.0142 109.418C67.642 116.065 63.7113 120.703 58.4282 123.499C53.2603 126.233 46.9189 127.159 40.5054 126.842C27.7489 126.214 13.4521 120.604 4.87649 112.093C0.769518 108.017 -0.35475 102.496 0.0913368 96.8727C0.535378 91.2758 2.5494 85.1647 5.24466 79.2243C10.6466 67.3184 19.1778 55.2452 25.3784 47.7487Z" fill="#1A1A1A"/>
<path d="M50.3345 0.593435C51.868 -0.461037 53.9664 -0.0727717 55.021 1.46062C56.0755 2.99407 55.6872 5.0925 54.1538 6.14715C52.6658 7.17055 51.5746 8.38685 50.7896 9.56121C55.5014 8.30887 60.8846 7.49477 66.8531 7.04168C81.6998 5.91483 90.0836 13.4567 96.6197 19.3512C99.9837 22.3851 102.578 24.7045 105.38 25.9489C107.893 27.0644 110.701 27.3549 114.653 25.694C126.832 20.5754 137.635 17.9721 146.025 17.6716C146.269 17.6628 146.512 17.6559 146.753 17.6511C148.533 16.0156 150.803 14.7629 153.408 14.1208C160.817 12.2946 168.123 16.088 169.726 22.5934C170.643 26.3147 169.493 30.1149 166.957 33.03C168.218 38.1188 169.087 44.6534 168.288 51.3649C167.599 57.1453 165.659 63.1735 161.554 68.4938C157.434 73.8353 151.29 78.2574 142.543 81.0475C125.782 86.3945 111.465 87.2303 100.68 88.3005C95.213 88.843 90.8513 89.4276 87.3677 90.5612C83.9805 91.6635 81.6545 93.213 80.0435 95.5749C78.9949 97.1121 76.8983 97.5088 75.3609 96.4606C73.8236 95.412 73.4268 93.3155 74.4751 91.778C77.1578 87.8446 80.9247 85.57 85.2818 84.152C89.5424 82.7655 94.5777 82.1329 100.014 81.5934C111.037 80.4997 124.557 79.7112 140.496 74.6266C148.099 72.2011 153.032 68.5074 156.218 64.3776C159.421 60.2265 161.017 55.4267 161.595 50.569C162.162 45.8057 161.734 41.0991 160.963 37.1384C160.399 37.3488 159.816 37.5311 159.214 37.6794C151.806 39.5054 144.5 35.712 142.896 29.2067C142.521 27.6863 142.491 26.1521 142.759 24.6706C135.881 25.4328 127.193 27.7352 117.264 31.9079C111.664 34.2613 106.92 34.0065 102.646 32.1091C98.6623 30.3403 95.2342 27.1782 92.105 24.3561C85.6543 18.5386 79.1642 12.8669 67.3638 13.7624C54.2129 14.7607 45.5531 17.5063 40.7271 21.6589C38.3924 23.6679 36.9264 26.0279 36.2378 28.8259C35.5376 31.6717 35.595 35.1677 36.6519 39.4557C37.0972 41.2626 35.9938 43.0893 34.187 43.5348C32.3801 43.9802 30.5535 42.8759 30.1079 41.069C28.8688 36.0416 28.6635 31.3989 29.6929 27.2155C30.7341 22.9846 32.9906 19.4235 36.3306 16.5495C38.0695 15.0532 40.0921 13.7539 42.3775 12.6305C42.8512 9.67325 44.9561 4.29244 50.3345 0.593435Z" fill="#1A1A1A"/>
<path d="M31.7115 69.1315C38.635 66.9904 44.0214 76.4727 37.9947 79.986C30.9828 81.9371 25.8044 72.972 31.7115 69.1315Z" fill="#1A1A1A"/>
<path d="M152.702 52.3581C153.852 50.8951 155.97 50.6413 157.433 51.7917C158.896 52.942 159.15 55.0601 158 56.5231C157.279 57.4393 156.2 58.141 155.321 58.6413C154.333 59.2037 153.133 59.7648 151.811 60.2966C149.162 61.3619 145.819 62.3911 142.273 63.1071C138.736 63.8211 134.879 64.2473 131.233 64.0348C127.63 63.8248 123.914 62.9723 120.965 60.8288C119.46 59.7343 119.127 57.6261 120.221 56.1208C121.316 54.6156 123.424 54.2822 124.929 55.3766C126.421 56.4615 128.684 57.1358 131.626 57.3073C134.524 57.4762 137.776 57.1392 140.939 56.5007C144.092 55.8641 147.039 54.9515 149.296 54.0436C150.427 53.5888 151.336 53.1545 151.987 52.7839C152.747 52.3512 152.84 52.1824 152.702 52.3581Z" fill="#1A1A1A"/>
<path d="M42.6792 24.1227C45.9925 22.8873 50.1544 25.8445 51.9751 30.7272C53.7958 35.61 52.5862 40.5698 49.273 41.8053C45.9597 43.0408 41.7979 40.0844 39.9771 35.2018C38.1564 30.3191 39.366 25.3583 42.6792 24.1227Z" fill="#1A1A1A"/>
<path d="M61.9907 17.9753C65.304 16.7398 69.4659 19.6971 71.2867 24.5798C73.1073 29.4625 71.8978 34.4223 68.5845 35.6579C65.2713 36.8933 61.1094 33.9369 59.2886 29.0544C57.4679 24.1716 58.6775 19.2108 61.9907 17.9753Z" fill="#1A1A1A"/>
<path d="M26.439 0.29656C28.2461 -0.148857 30.0727 0.955312 30.5181 2.76238C30.963 4.56906 29.8588 6.39397 28.0523 6.83953C24.6493 7.6783 22.1193 9.34653 20.3023 11.7536C18.452 14.2048 17.1778 17.6434 16.7251 22.2428C16.5426 24.0945 14.8942 25.4481 13.0425 25.2663C11.1905 25.084 9.83609 23.4347 10.0181 21.5827C10.5558 16.1193 12.1296 11.393 14.9234 7.69207C17.7505 3.94719 21.6621 1.47399 26.439 0.29656Z" fill="#1A1A1A"/>
</svg>
