<svg width="188" height="117" viewBox="0 0 188 117" fill="none" xmlns="http://www.w3.org/2000/svg">
<path d="M44.9387 33.3861C46.5865 32.5209 48.6233 33.1554 49.4885 34.8031C50.3536 36.4509 49.7193 38.4877 48.0715 39.3529C40.3056 43.4306 29.3074 50.2894 20.551 58.0111C43.9277 61.2219 47.2921 92.9083 23.9016 95.9144C20.3258 95.5566 17.178 94.6024 14.4787 93.2201C19.1037 98.5004 25.0807 103.15 31.2736 106.107C31.4867 106.209 31.7008 106.305 31.9133 106.403C30.358 101.846 32.1107 96.4744 37.8303 95.432C45.197 96.1434 48.2146 104.313 45.6535 109.302C49.7309 108.916 53.2344 107.109 55.8303 103.313C57.0643 101.508 58.0467 99.7506 58.8342 98.0824C58.4878 98.145 58.1321 98.1979 57.7668 98.2386C40.8891 96.0064 38.3603 73.217 54.676 70.6341C62.4634 71.4501 67.1812 77.0089 68.4084 82.9359C68.4827 83.1541 68.536 83.3834 68.5647 83.6215L68.5354 83.6244V83.6273C68.5599 83.6246 68.5647 83.6244 68.5647 83.6244V83.6283C68.5649 83.6304 68.5654 83.6328 68.5656 83.6351C68.5662 83.6403 68.5679 83.6464 68.5686 83.6527C68.57 83.6655 68.5706 83.6811 68.5725 83.6986C68.5762 83.734 68.5812 83.78 68.5861 83.8343C68.5932 83.9121 68.5988 84.0092 68.6067 84.1244C68.8085 85.7073 68.7619 87.2943 68.4582 88.806C68.3847 89.4636 68.287 90.1744 68.1545 90.931C67.405 95.2124 65.594 100.974 61.3938 107.117C57.5624 112.72 52.1464 115.482 46.1936 116.022C40.3707 116.55 34.1639 114.956 28.3693 112.19C16.8437 106.687 5.81933 95.9943 1.19259 84.8334C-1.02322 79.4881 0.0707171 73.9604 2.65255 68.9447C5.22223 63.9528 9.439 59.0927 14.218 54.6527C23.7962 45.754 36.3253 37.9088 44.9387 33.3861Z" fill="#1A1A1A"/>
<path d="M104.161 0.6488C105.664 -0.448805 107.774 -0.120531 108.871 1.3822C109.969 2.88486 109.64 4.99333 108.138 6.09118L99.8313 12.1576C113.255 16.9778 117.95 26.8977 121.622 34.683C123.555 38.7802 125.053 41.9211 127.158 44.1508C129.046 46.1494 131.524 47.5006 135.811 47.4935C149.022 47.4718 159.993 49.2399 167.849 52.2006C168.077 52.2864 168.302 52.374 168.526 52.4623C170.799 51.6404 173.376 51.3598 176.028 51.7728C183.567 52.9476 188.843 59.2669 187.812 65.8871C187.222 69.6732 184.695 72.7343 181.231 74.4447C180.43 79.6264 178.711 85.9913 175.383 91.8754C172.517 96.9423 168.4 101.754 162.561 105.078C156.698 108.416 149.323 110.124 140.178 109.323C122.652 107.787 109.122 103.032 98.759 99.8568C93.5059 98.2473 89.256 97.1036 85.6047 96.805C82.0543 96.5147 79.3102 97.0465 76.9123 98.6039C75.3519 99.617 73.2661 99.1745 72.2522 97.6146C71.2384 96.0538 71.6817 93.9663 73.2424 92.9525C77.2352 90.3592 81.5878 89.7138 86.1545 90.0873C90.6201 90.4525 95.5092 91.813 100.733 93.4134C111.324 96.6585 124.101 101.148 140.767 102.609C148.717 103.305 154.694 101.802 159.227 99.222C163.783 96.6284 167.108 92.8161 169.516 88.558C171.877 84.3825 173.3 79.8757 174.117 75.9242C173.515 75.9008 172.905 75.843 172.292 75.7474C164.752 74.5728 159.477 68.2535 160.508 61.6332C160.749 60.0858 161.313 58.659 162.133 57.3959C155.494 55.4447 146.59 54.217 135.822 54.2347C129.747 54.2447 125.469 52.1778 122.258 48.7777C119.266 45.6085 117.323 41.3691 115.526 37.558C111.82 29.7015 108.021 21.9647 96.7893 18.2367C95.5224 17.8162 94.2912 17.43 93.0949 17.0775L81.5822 25.4877C80.0794 26.5851 77.971 26.2569 76.8733 24.7543C75.7756 23.2513 76.1047 21.1421 77.6076 20.0443L84.5022 15.0072C78.0953 13.8611 73.0251 13.987 69.1692 15.2406C66.24 16.1929 63.977 17.8049 62.2619 20.1205C60.5176 22.4756 59.2221 25.7226 58.5422 30.0863C58.2556 31.9252 56.5315 33.1843 54.6926 32.8978C52.854 32.6111 51.5958 30.8879 51.882 29.0492C52.6791 23.9331 54.2808 19.5708 56.8449 16.1088C59.4382 12.6074 62.8948 10.1938 67.0852 8.83142C73.701 6.68057 82.0219 7.18672 91.7531 9.7113L104.161 0.6488Z" fill="#1A1A1A"/>
<path d="M141.266 82.9935C149.1 81.9877 157.557 82.3976 163.724 84.6898C165.468 85.3382 166.357 87.2775 165.709 89.0218C165.061 90.7663 163.121 91.6554 161.376 91.0072C156.595 89.23 149.338 88.7519 142.124 89.6781C134.85 90.6121 128.449 92.8671 125.049 95.8236C123.645 97.0449 121.515 96.8959 120.294 95.4916C119.073 94.0873 119.221 91.959 120.625 90.7377C125.511 86.4888 133.492 83.9916 141.266 82.9935Z" fill="#1A1A1A"/>
<path d="M42.5305 55.555C49.7442 56.2517 51.0538 67.0793 44.1379 67.9945C36.9165 67.0881 35.5992 56.8184 42.5305 55.555Z" fill="#1A1A1A"/>
<path d="M106.793 43.0326C107.08 41.194 108.802 39.9359 110.641 40.222C112.48 40.5085 113.739 42.2317 113.452 44.0707C112.679 49.0336 110.341 55.065 104.599 58.2562C98.7899 61.4844 90.6859 61.1554 79.926 56.1039C78.2413 55.3129 77.5169 53.3062 78.3078 51.6215C79.0988 49.9371 81.1047 49.2128 82.7893 50.0033C92.6868 54.65 98.2655 54.0644 101.324 52.3646C104.45 50.6278 106.166 47.0597 106.793 43.0326Z" fill="#1A1A1A"/>
<path d="M99.1584 33.2689C101.818 38.9946 100.693 45.1606 96.6457 47.0404C92.5984 48.9202 87.1614 45.8023 84.5022 40.0765C85.041 39.8982 89.3999 39.52 92.718 37.9974C96.0333 36.476 99.1532 33.2743 99.1584 33.2689Z" fill="#1A1A1A"/>
<path d="M118.714 14.5121C120.217 13.4146 122.325 13.7427 123.423 15.2455L128.764 22.558C129.861 24.0608 129.533 26.1692 128.03 27.267C126.528 28.3647 124.418 28.0365 123.321 26.5336L117.98 19.2211C116.882 17.7182 117.211 15.6098 118.714 14.5121Z" fill="#1A1A1A"/>
</svg>
