<svg width="176" height="134" viewBox="0 0 176 134" fill="none" xmlns="http://www.w3.org/2000/svg">
<path d="M149.966 59.2743C151.979 58.8516 154.055 58.7228 155.735 59.2118C157.521 59.7324 158.548 61.6028 158.028 63.3896C157.507 65.1762 155.638 66.2027 153.851 65.6825C153.851 65.6826 153.795 65.6681 153.67 65.6552C153.543 65.642 153.367 65.633 153.141 65.6386C152.685 65.6498 152.084 65.7164 151.352 65.87C149.887 66.1776 148.027 66.8078 145.949 67.8778C141.806 70.0115 136.909 73.8355 132.655 80.0859C131.607 81.6241 129.511 82.0224 127.973 80.9755C126.435 79.9282 126.037 77.8323 127.084 76.2939C131.981 69.1 137.737 64.5255 142.864 61.8857C145.42 60.5694 147.849 59.719 149.966 59.2743Z" fill="#1A1A1A"/>
<path fill-rule="evenodd" clip-rule="evenodd" d="M74.1819 15.203C89.071 15.2829 96.8159 23.4788 102.853 29.8837C105.96 33.1804 108.359 35.7024 111.052 37.1698C113.466 38.4851 116.24 39.003 120.314 37.6679C132.868 33.553 143.847 31.8334 152.234 32.2138C152.476 32.2248 152.718 32.2373 152.957 32.2519C154.864 30.7663 157.227 29.7022 159.875 29.2733C167.408 28.0536 174.382 32.4261 175.453 39.04C176.066 42.8222 174.613 46.516 171.85 49.2157C172.694 54.3904 173.031 60.9748 171.691 67.6005C170.536 73.306 168.115 79.1568 163.593 84.1269C159.053 89.1168 152.571 93.0273 143.627 95.0995C130.581 98.1224 119.206 98.651 109.714 98.8193C109.454 98.8238 109.201 98.7974 108.957 98.746C108.945 98.7949 108.933 98.8443 108.921 98.8935C108.651 99.9834 108.557 102.35 108.699 105.718C108.836 108.942 109.167 112.69 109.552 116.283C109.936 119.868 110.37 123.258 110.709 125.754C110.879 127.001 111.025 128.023 111.127 128.731C111.178 129.085 111.218 129.361 111.245 129.548C111.259 129.641 111.27 129.712 111.278 129.759C111.281 129.782 111.284 129.8 111.285 129.811L111.288 129.828C111.568 131.668 110.303 133.386 108.463 133.666C106.623 133.945 104.904 132.68 104.624 130.84L104.621 130.818C104.619 130.805 104.616 130.786 104.613 130.761C104.605 130.71 104.594 130.635 104.579 130.538C104.55 130.344 104.508 130.06 104.455 129.697C104.35 128.972 104.203 127.93 104.03 126.661C103.686 124.124 103.243 120.668 102.85 117.002C102.458 113.343 102.11 109.433 101.965 106.002C101.826 102.715 101.845 99.4283 102.379 97.2734C104.464 88.8585 105.595 84.0529 106.588 77.1152C106.881 75.0695 106.539 73.9798 106.224 73.4159C105.908 72.8519 105.411 72.4436 104.711 72.1405C104.32 71.9713 103.899 71.8517 103.482 71.7685L102.433 75.0429C101.865 76.815 99.9667 77.7907 98.1946 77.2226C96.4224 76.6542 95.4466 74.7575 96.0149 72.9853L97.259 69.1034C97.1228 68.9645 96.9783 68.8197 96.8274 68.6718C95.7606 67.6262 94.6231 66.6752 93.7737 66.2372C92.1851 65.4183 90.9657 65.0108 89.8117 64.8456C89.6719 64.8256 89.5302 64.8084 89.386 64.7948C89.5688 65.4582 89.734 66.0699 89.8742 66.6122C90.0736 67.3829 90.2288 68.0172 90.3352 68.4609C90.3883 68.6824 90.4302 68.8566 90.4582 68.9775C90.4722 69.0379 90.483 69.0863 90.4905 69.1191C90.4941 69.135 90.4972 69.1481 90.4992 69.1571C90.5002 69.1611 90.5006 69.1644 90.5012 69.1669L90.5022 69.1728L90.5354 69.3427C90.8382 71.0998 89.7126 72.8045 87.9533 73.2001C86.1377 73.6081 84.3353 72.4669 83.927 70.6513C83.9268 70.6503 83.9266 70.6482 83.926 70.6454C83.9247 70.6398 83.922 70.6306 83.9192 70.6181C83.9134 70.5927 83.904 70.5533 83.8918 70.5009C83.8673 70.3953 83.8306 70.2359 83.7815 70.0312C83.6833 69.6214 83.5369 69.0266 83.3489 68.2997C83.2146 67.7808 83.0572 67.1969 82.883 66.5653C81.5273 67.4303 80.9303 68.1844 80.6633 68.828C80.2354 69.86 80.2063 71.6913 81.8205 75.578C82.6526 77.5814 83.3618 79.3986 83.9631 81.078C86.5319 88.2521 89.7419 93.2253 90.3762 101.981C90.617 105.306 90.6429 111.987 90.6145 117.692C90.6001 120.576 90.5713 123.259 90.5461 125.222C90.5335 126.203 90.5224 127.006 90.5139 127.562C90.5096 127.84 90.5066 128.057 90.5041 128.205C90.5029 128.279 90.5009 128.336 90.5002 128.374V128.429C90.5002 128.43 90.4993 128.431 90.4992 128.432C90.467 130.292 88.9331 131.776 87.0725 131.744C85.2118 131.712 83.7289 130.177 83.761 128.316V128.302C83.7611 128.292 83.7616 128.279 83.7619 128.261C83.7626 128.224 83.7637 128.168 83.7649 128.096C83.7673 127.95 83.7704 127.735 83.7746 127.459C83.7831 126.907 83.7944 126.111 83.8069 125.136C83.8318 123.185 83.861 120.519 83.8752 117.657C83.904 111.872 83.8726 105.478 83.6545 102.468C83.635 102.198 83.6114 101.934 83.5871 101.675C82.2318 102.411 81.1045 103.339 80.1545 104.515C78.9846 105.962 76.8627 106.187 75.4153 105.017C73.9678 103.848 73.7435 101.726 74.9133 100.278C76.9334 97.7786 79.391 96.0672 82.1584 94.8925C81.0524 91.6091 79.4563 88.4826 77.6184 83.3495C77.0639 81.801 76.3958 80.0923 75.5949 78.164C73.8547 73.9738 72.916 69.9154 74.4387 66.245C75.9617 62.5746 79.4989 60.3729 83.6946 58.6454L84.0051 58.5175L84.3352 58.454C84.4993 58.4222 84.6631 58.3948 84.8254 58.3661C82.4736 57.5348 80.1157 56.1416 77.9162 54.2665C76.5877 54.9312 75.278 55.4682 74.1389 55.8026C73.5162 55.9855 72.8251 56.1431 72.1506 56.1933C71.8134 56.2183 71.3765 56.2252 70.9026 56.1464C70.4576 56.0724 69.7179 55.8803 69.0237 55.3075C67.5881 54.1231 67.3842 51.999 68.5686 50.5634C69.4049 49.5499 70.7094 49.1521 71.9094 49.4218C72.0014 49.4002 72.1124 49.3725 72.2405 49.3349C72.501 49.2584 72.8001 49.1546 73.1311 49.0273C72.7967 48.561 72.472 48.081 72.1574 47.5878C71.8174 47.668 71.3889 47.7697 70.8811 47.8896C69.4774 48.221 67.4668 48.6967 65.0383 49.2714C60.1812 50.4208 53.654 51.9684 46.9729 53.5614C42.8619 54.5417 38.7137 55.5361 34.8674 56.4618C34.7315 56.6948 34.5661 56.9161 34.3694 57.1181C28.2491 63.4021 19.9159 73.3311 13.9836 83.3866C37.2053 79.1937 50.2248 108.28 28.9172 118.387C25.4082 119.154 22.1208 119.222 19.1272 118.745C25.16 122.331 32.2821 124.899 39.0852 125.791C39.3193 125.822 39.5531 125.847 39.7854 125.874C36.8949 122.024 36.8971 116.374 42.0119 113.61C49.2357 112.004 54.6362 118.835 53.7483 124.372C57.5047 122.741 60.276 119.938 61.5676 115.524C62.1816 113.426 62.5713 111.45 62.803 109.62C62.4928 109.787 62.1711 109.948 61.8362 110.101C45.0976 113.209 35.6307 92.3233 50.343 84.8114C58.0015 83.1736 64.2113 86.9991 67.2141 92.2558C67.3511 92.4392 67.4712 92.6395 67.5715 92.8554L67.5451 92.8671C67.5457 92.8681 67.5466 92.869 67.5471 92.87C67.5699 92.8598 67.573 92.8582 67.5735 92.8583C67.5737 92.8588 67.5739 92.8611 67.5744 92.8622C67.5754 92.8642 67.5773 92.8668 67.5783 92.8691C67.5805 92.8736 67.5826 92.8791 67.5852 92.8847C67.5905 92.8964 67.5966 92.9107 67.6037 92.9267C67.6183 92.9592 67.6379 93.0015 67.6594 93.0517C67.6899 93.1228 67.7252 93.2124 67.7678 93.3183C68.4505 94.7605 68.8973 96.2841 69.0774 97.8153C69.2115 98.4641 69.3388 99.171 69.4475 99.9325C70.0617 104.235 70.1263 110.275 68.0364 117.417C66.13 123.931 61.8362 128.235 56.344 130.594C50.9714 132.901 44.576 133.308 38.2092 132.474C25.5456 130.813 11.7505 124.064 3.8928 114.887C0.129497 110.491 -0.543691 104.897 0.356669 99.328C1.2528 93.7855 3.75529 87.8576 6.92308 82.1552C11.4774 73.957 17.6453 65.8051 23.2727 59.2782C20.267 60.0204 18.1259 60.565 17.3215 60.8026C15.0654 61.4693 11.925 62.7741 9.72776 64.4208C8.62633 65.2463 7.99582 65.9849 7.71702 66.5487C7.50403 66.9798 7.4898 67.2803 7.67015 67.7011C8.40291 69.4116 7.61013 71.3928 5.89964 72.1259C4.18903 72.8588 2.20794 72.066 1.47483 70.3554C0.442212 67.9458 0.677541 65.581 1.67601 63.5614C2.60898 61.6744 4.15307 60.176 5.68577 59.0273C8.75666 56.7258 12.726 55.1325 15.4123 54.3388C17.9968 53.5752 32.1203 50.1735 45.4094 47.0048C52.0956 45.4105 58.6272 43.8617 63.4866 42.7118C65.7766 42.1699 67.6952 41.7156 69.0842 41.3876C68.0828 38.6419 67.5332 35.9022 67.428 33.3241C67.2401 28.7214 68.4639 24.6356 71.0344 21.955C59.396 22.1067 51.4894 23.5236 46.7434 26.4511C44.3011 27.9577 42.7397 29.841 41.8762 32.2353C40.9861 34.7039 40.7441 37.9814 41.4543 42.3671C41.7516 44.2041 40.5032 45.9338 38.6662 46.2314C36.8291 46.5288 35.0987 45.2813 34.801 43.4442C33.9776 38.3593 34.1321 33.8409 35.5354 29.9491C36.9655 25.9832 39.5959 22.9403 43.2053 20.7138C50.1519 16.429 60.8136 15.1314 74.1819 15.203ZM98.9914 35.6122C102.744 44.8621 101.331 54.2677 95.1721 57.8446C94.5427 58.2101 93.8845 58.5007 93.2043 58.7226C94.4279 59.0972 95.6294 59.6113 96.8625 60.247C98.6624 61.1749 100.401 62.7345 101.546 63.8573C101.921 64.2251 102.259 64.5768 102.549 64.8837C102.661 64.8891 102.777 64.8958 102.897 64.9042C104.067 64.9865 105.722 65.2323 107.391 65.955C109.09 66.6912 110.9 67.9691 112.106 70.1239C113.312 72.2792 113.707 74.9428 113.26 78.0693C112.529 83.1795 111.716 87.2034 110.577 92.0595C119.673 91.874 130.173 91.2989 142.106 88.5341C149.881 86.7327 155.097 83.4507 158.608 79.5927C162.136 75.7147 164.115 71.0595 165.085 66.2646C166.036 61.5624 165.992 56.8365 165.544 52.8261C164.964 52.9906 164.367 53.1253 163.754 53.2245C156.222 54.4443 149.247 50.0709 148.176 43.4569C147.926 41.9115 148.019 40.3803 148.406 38.9257C141.489 39.1285 132.644 40.7194 122.412 44.0732C116.64 45.965 111.933 45.3256 107.826 43.0878C104.454 41.2499 101.6 38.369 98.9914 35.6122ZM82.6145 26.5146C79.6507 25.0886 77.7015 25.408 76.6789 26.0019C75.5103 26.6807 73.9863 28.7113 74.1633 33.0487C74.285 36.0292 75.2554 39.5608 77.2805 43.0478C77.8203 43.9772 78.4021 44.8385 79.0071 45.6357C79.9603 44.87 80.7598 44.0711 81.2893 43.2958C82.339 41.759 84.436 41.3644 85.9729 42.414C87.5093 43.4635 87.9047 45.5598 86.8557 47.0966C86.0474 48.2801 85.0101 49.3696 83.8762 50.3495C84.5423 50.8037 85.2037 51.1905 85.8528 51.5028C88.8159 52.9285 90.7646 52.6111 91.7873 52.0175C92.8099 51.4236 94.0532 49.8881 94.2834 46.6073C94.5104 43.3709 93.6199 39.1615 91.1867 34.9716C88.7533 30.7816 85.5381 27.9213 82.6145 26.5146Z" fill="#1A1A1A"/>
<path d="M34.1233 74.2402C41.1977 72.6669 45.7979 82.5549 39.5061 85.5683C32.3594 86.9443 27.9247 77.5892 34.1233 74.2402Z" fill="#1A1A1A"/>
<path d="M88.8362 0.391514C93.6734 -0.506343 98.257 0.133538 102.377 2.37882C106.449 4.59779 109.832 8.25354 112.575 13.0087C113.505 14.6207 112.952 16.6822 111.34 17.6122C109.728 18.5416 107.667 17.9877 106.738 16.3759C104.428 12.3729 101.849 9.76643 99.1526 8.29679C96.5045 6.85364 93.5124 6.37795 90.0666 7.01749C88.2369 7.35711 86.4778 6.14978 86.1379 4.32022C85.7983 2.49043 87.0064 0.73131 88.8362 0.391514Z" fill="#1A1A1A"/>
<path d="M71.3752 1.66495C72.9987 0.755152 75.0522 1.33264 75.9621 2.95597C76.8719 4.57945 76.2935 6.63292 74.6701 7.54288C72.2065 8.92347 66.2922 10.6391 59.7912 8.25382C58.0441 7.6127 57.1473 5.67584 57.7883 3.92862C58.4294 2.18142 60.3663 1.2847 62.1135 1.92569C66.4447 3.51466 70.3051 2.26443 71.3752 1.66495Z" fill="#1A1A1A"/>
</svg>
